<mxfile host="app.diagrams.net" modified="2020-12-31T08:58:16.618Z" agent="5.0 (Windows NT 10.0; Win64; x64) AppleWebKit/537.36 (KHTML, like Gecko) Chrome/87.0.4280.88 Safari/537.36" etag="iHRDhKgrgPMRbxt-Y_bb" version="14.1.3" type="github">
  <diagram id="kgpKYQtTHZ0yAKxKKP6v" name="Page-1">
    <mxGraphModel dx="1038" dy="580" grid="1" gridSize="10" guides="1" tooltips="1" connect="1" arrows="1" fold="1" page="1" pageScale="1" pageWidth="850" pageHeight="1100" math="0" shadow="0">
      <root>
        <mxCell id="0" />
        <mxCell id="1" parent="0" />
        <mxCell id="F8Gd4oivqEVBenXerKCY-9" value="" style="shape=umlLifeline;participant=umlActor;perimeter=lifelinePerimeter;whiteSpace=wrap;html=1;container=1;collapsible=0;recursiveResize=0;verticalAlign=top;spacingTop=36;outlineConnect=0;" vertex="1" parent="1">
          <mxGeometry x="140" y="50" width="20" height="470" as="geometry" />
        </mxCell>
        <mxCell id="F8Gd4oivqEVBenXerKCY-8" value="" style="html=1;points=[];perimeter=orthogonalPerimeter;" vertex="1" parent="F8Gd4oivqEVBenXerKCY-9">
          <mxGeometry x="5" y="80" width="10" height="320" as="geometry" />
        </mxCell>
        <mxCell id="F8Gd4oivqEVBenXerKCY-10" value=":Giao diện" style="shape=umlLifeline;perimeter=lifelinePerimeter;whiteSpace=wrap;html=1;container=1;collapsible=0;recursiveResize=0;outlineConnect=0;" vertex="1" parent="1">
          <mxGeometry x="375" y="50" width="100" height="480" as="geometry" />
        </mxCell>
        <mxCell id="F8Gd4oivqEVBenXerKCY-12" value="" style="html=1;points=[];perimeter=orthogonalPerimeter;" vertex="1" parent="F8Gd4oivqEVBenXerKCY-10">
          <mxGeometry x="45" y="130" width="10" height="270" as="geometry" />
        </mxCell>
        <mxCell id="F8Gd4oivqEVBenXerKCY-11" value=":Server&amp;nbsp;" style="shape=umlLifeline;perimeter=lifelinePerimeter;whiteSpace=wrap;html=1;container=1;collapsible=0;recursiveResize=0;outlineConnect=0;" vertex="1" parent="1">
          <mxGeometry x="650" y="50" width="100" height="480" as="geometry" />
        </mxCell>
        <mxCell id="F8Gd4oivqEVBenXerKCY-15" value="" style="html=1;points=[];perimeter=orthogonalPerimeter;" vertex="1" parent="F8Gd4oivqEVBenXerKCY-11">
          <mxGeometry x="45" y="90" width="10" height="310" as="geometry" />
        </mxCell>
        <mxCell id="F8Gd4oivqEVBenXerKCY-20" value="Kiểm tra thiết bị có tồn tại &lt;br&gt;một tài khoản nào chưa chưa" style="edgeStyle=orthogonalEdgeStyle;html=1;align=left;spacingLeft=2;endArrow=block;rounded=0;entryX=1;entryY=0;" edge="1" parent="F8Gd4oivqEVBenXerKCY-11">
          <mxGeometry x="0.3846" relative="1" as="geometry">
            <mxPoint x="55" y="140" as="sourcePoint" />
            <Array as="points">
              <mxPoint x="80" y="140" />
            </Array>
            <mxPoint x="60" y="160" as="targetPoint" />
            <mxPoint as="offset" />
          </mxGeometry>
        </mxCell>
        <mxCell id="F8Gd4oivqEVBenXerKCY-28" value="Kiểm tra thông tin" style="edgeStyle=orthogonalEdgeStyle;html=1;align=left;spacingLeft=2;endArrow=block;rounded=0;entryX=1;entryY=0;" edge="1" parent="F8Gd4oivqEVBenXerKCY-11">
          <mxGeometry relative="1" as="geometry">
            <mxPoint x="55" y="320" as="sourcePoint" />
            <Array as="points">
              <mxPoint x="80" y="320" />
            </Array>
            <mxPoint x="60" y="340" as="targetPoint" />
          </mxGeometry>
        </mxCell>
        <mxCell id="F8Gd4oivqEVBenXerKCY-21" value="Đã tồn tài một tài khoản thì đi đến trang home" style="html=1;verticalAlign=bottom;endArrow=open;dashed=1;endSize=8;" edge="1" parent="1" source="F8Gd4oivqEVBenXerKCY-11" target="F8Gd4oivqEVBenXerKCY-10">
          <mxGeometry relative="1" as="geometry">
            <mxPoint x="520" y="260" as="sourcePoint" />
            <mxPoint x="440" y="260" as="targetPoint" />
            <Array as="points">
              <mxPoint x="540" y="230" />
            </Array>
          </mxGeometry>
        </mxCell>
        <mxCell id="F8Gd4oivqEVBenXerKCY-22" value="Chưa tồn tại tài khoản thì đến form đăng nhập" style="html=1;verticalAlign=bottom;endArrow=open;dashed=1;endSize=8;" edge="1" parent="1" source="F8Gd4oivqEVBenXerKCY-11" target="F8Gd4oivqEVBenXerKCY-10">
          <mxGeometry relative="1" as="geometry">
            <mxPoint x="530" y="290" as="sourcePoint" />
            <mxPoint x="440" y="290" as="targetPoint" />
            <Array as="points">
              <mxPoint x="510" y="280" />
            </Array>
          </mxGeometry>
        </mxCell>
        <mxCell id="F8Gd4oivqEVBenXerKCY-23" value="Yêu cầu người nhập email và mật khẩu" style="html=1;verticalAlign=bottom;endArrow=open;dashed=1;endSize=8;" edge="1" parent="1" source="F8Gd4oivqEVBenXerKCY-10">
          <mxGeometry relative="1" as="geometry">
            <mxPoint x="250" y="300" as="sourcePoint" />
            <mxPoint x="160" y="300" as="targetPoint" />
          </mxGeometry>
        </mxCell>
        <mxCell id="F8Gd4oivqEVBenXerKCY-24" value="Người dùng mở ứng dụng" style="html=1;verticalAlign=bottom;endArrow=block;" edge="1" parent="1" target="F8Gd4oivqEVBenXerKCY-11">
          <mxGeometry width="80" relative="1" as="geometry">
            <mxPoint x="160" y="150" as="sourcePoint" />
            <mxPoint x="250" y="150" as="targetPoint" />
          </mxGeometry>
        </mxCell>
        <mxCell id="F8Gd4oivqEVBenXerKCY-25" value="Nhập email và mật khẩu" style="html=1;verticalAlign=bottom;endArrow=block;" edge="1" parent="1" target="F8Gd4oivqEVBenXerKCY-10">
          <mxGeometry width="80" relative="1" as="geometry">
            <mxPoint x="160" y="350" as="sourcePoint" />
            <mxPoint x="250" y="350" as="targetPoint" />
          </mxGeometry>
        </mxCell>
        <mxCell id="F8Gd4oivqEVBenXerKCY-29" value="Thông tin sai hoặc không hợp lệ, yêu cầu nhập lại" style="html=1;verticalAlign=bottom;endArrow=open;dashed=1;endSize=8;" edge="1" parent="1" source="F8Gd4oivqEVBenXerKCY-11">
          <mxGeometry relative="1" as="geometry">
            <mxPoint x="520" y="410" as="sourcePoint" />
            <mxPoint x="436" y="413" as="targetPoint" />
          </mxGeometry>
        </mxCell>
        <mxCell id="F8Gd4oivqEVBenXerKCY-30" value="Thông tin đúng, đi đến trang home" style="html=1;verticalAlign=bottom;endArrow=open;dashed=1;endSize=8;entryX=1.56;entryY=0.965;entryDx=0;entryDy=0;entryPerimeter=0;" edge="1" parent="1" source="F8Gd4oivqEVBenXerKCY-11" target="F8Gd4oivqEVBenXerKCY-12">
          <mxGeometry relative="1" as="geometry">
            <mxPoint x="520" y="440" as="sourcePoint" />
            <mxPoint x="440" y="440" as="targetPoint" />
          </mxGeometry>
        </mxCell>
        <mxCell id="F8Gd4oivqEVBenXerKCY-31" value="Người dùng" style="text;align=center;fontStyle=1;verticalAlign=middle;spacingLeft=3;spacingRight=3;strokeColor=none;rotatable=0;points=[[0,0.5],[1,0.5]];portConstraint=eastwest;" vertex="1" parent="1">
          <mxGeometry x="110" y="90" width="80" height="26" as="geometry" />
        </mxCell>
        <mxCell id="F8Gd4oivqEVBenXerKCY-26" value="Click vào đăng nhập" style="html=1;verticalAlign=bottom;endArrow=block;exitX=1;exitY=0.667;exitDx=0;exitDy=0;exitPerimeter=0;" edge="1" parent="1" source="F8Gd4oivqEVBenXerKCY-12" target="F8Gd4oivqEVBenXerKCY-11">
          <mxGeometry width="80" relative="1" as="geometry">
            <mxPoint x="440" y="360" as="sourcePoint" />
            <mxPoint x="520" y="360" as="targetPoint" />
          </mxGeometry>
        </mxCell>
      </root>
    </mxGraphModel>
  </diagram>
</mxfile>
